<?xml version="1.0" encoding="UTF-8" standalone="no" ?>
<!DOCTYPE svg PUBLIC "-//W3C//DTD SVG 1.1//EN" "http://www.w3.org/Graphics/SVG/1.1/DTD/svg11.dtd">
<svg xmlns="http://www.w3.org/2000/svg" xmlns:xlink="http://www.w3.org/1999/xlink" version="1.1" width="1080" height="1080" viewBox="0 0 1080 1080" xml:space="preserve">
<desc>Created with Fabric.js 5.2.4</desc>
<defs>
</defs>
<rect x="0" y="0" width="100%" height="100%" fill="transparent"></rect>
<g transform="matrix(1 0 0 1 540 540)" id="5f9a7572-0354-4737-b3b3-2f5924007ec5"  >
<rect style="stroke: none; stroke-width: 1; stroke-dasharray: none; stroke-linecap: butt; stroke-dashoffset: 0; stroke-linejoin: miter; stroke-miterlimit: 4; fill: rgb(255,255,255); fill-rule: nonzero; opacity: 1; visibility: hidden;" vector-effect="non-scaling-stroke"  x="-540" y="-540" rx="0" ry="0" width="1080" height="1080" />
</g>
<g transform="matrix(1 0 0 1 540 540)" id="e8f5bd54-81ca-4bfe-a8b0-560e969846c3"  >
</g>
<g transform="matrix(1 0 0 1 540 540)" id="Vector"  >
<path style="stroke: rgb(0,0,0); stroke-width: 0; stroke-dasharray: none; stroke-linecap: butt; stroke-dashoffset: 0; stroke-linejoin: miter; stroke-miterlimit: 4; fill: rgb(213,224,113); fill-rule: nonzero; opacity: 1;" vector-effect="non-scaling-stroke"  transform=" translate(-16.88, -16.88)" d="M 16.371 21.4113 C 17.0699 21.4113 17.668 21.5793 18.1653 21.9153 C 18.6626 22.2513 18.9113 22.6478 18.9113 23.1048 C 18.9113 23.5887 18.6626 23.9987 18.1653 24.3347 C 17.668 24.6707 17.0699 24.8387 16.371 24.8387 C 15.6452 24.8387 15.0336 24.6707 14.5363 24.3347 C 14.039 23.9987 13.7903 23.5887 13.7903 23.1048 C 13.7903 22.6478 14.039 22.2513 14.5363 21.9153 C 15.0336 21.5793 15.6452 21.4113 16.371 21.4113 Z M 16.0484 14.2339 C 15.4301 14.2339 14.8992 14.0188 14.4556 13.5887 C 14.0121 13.1586 13.7903 12.6344 13.7903 12.0161 C 13.7903 11.3978 14.0121 10.8737 14.4556 10.4435 C 14.8992 10.0134 15.4301 9.79839 16.0484 9.79839 C 16.6667 9.79839 17.1909 10.0134 17.621 10.4435 C 18.0511 10.8737 18.2661 11.3978 18.2661 12.0161 C 18.2661 12.6344 18.0511 13.1586 17.621 13.5887 C 17.1909 14.0188 16.6667 14.2339 16.0484 14.2339 Z M 25.3226 0 C 26.4785 0 27.5672 0.221774 28.5887 0.665323 C 29.6102 1.10887 30.504 1.71371 31.2702 2.47984 C 32.0363 3.24597 32.6411 4.13978 33.0847 5.16129 C 33.5282 6.1828 33.75 7.27151 33.75 8.42742 L 33.75 25.2823 C 33.75 26.4382 33.5282 27.5336 33.0847 28.5685 C 32.6411 29.6035 32.0363 30.504 31.2702 31.2702 C 30.504 32.0363 29.6102 32.6411 28.5887 33.0847 C 27.5672 33.5282 26.4785 33.75 25.3226 33.75 L 8.42742 33.75 C 7.27151 33.75 6.1828 33.5282 5.16129 33.0847 C 4.13978 32.6411 3.24597 32.0363 2.47984 31.2702 C 1.71371 30.504 1.10887 29.6035 0.665323 28.5685 C 0.221774 27.5336 0 26.4382 0 25.2823 L 0 8.42742 C 0 7.27151 0.221774 6.1828 0.665323 5.16129 C 1.10887 4.13978 1.71371 3.24597 2.47984 2.47984 C 3.24597 1.71371 4.13978 1.10887 5.16129 0.665323 C 6.1828 0.221774 7.27151 0 8.42742 0 L 25.3226 0 Z M 16.3306 27.5806 C 17.1371 27.5806 17.8898 27.4597 18.5887 27.2177 C 19.2876 26.9758 19.8992 26.6532 20.4234 26.25 C 20.9476 25.8468 21.3642 25.3763 21.6734 24.8387 C 21.9825 24.3011 22.1371 23.7231 22.1371 23.1048 C 22.1371 22.5134 21.9892 21.9489 21.6935 21.4113 C 21.3978 20.8737 20.9879 20.4032 20.4637 20 C 19.9395 19.5968 19.328 19.2742 18.629 19.0323 C 17.9301 18.7903 17.1774 18.6694 16.371 18.6694 C 16.2903 18.6694 16.2097 18.6761 16.129 18.6895 C 16.0484 18.703 15.9677 18.7097 15.8871 18.7097 C 15.8333 18.5753 15.793 18.4207 15.7661 18.246 C 15.7392 18.0712 15.7258 17.9032 15.7258 17.7419 C 15.7258 17.5538 15.7392 17.3454 15.7661 17.1169 C 15.793 16.8884 15.8333 16.7742 15.8871 16.7742 L 16.0484 16.7742 C 16.7204 16.7742 17.3454 16.6465 17.9234 16.3911 C 18.5013 16.1358 19.0054 15.793 19.4355 15.3629 C 19.8656 14.9328 20.2083 14.4288 20.4637 13.8508 C 20.7191 13.2728 20.8468 12.6613 20.8468 12.0161 C 20.8468 11.7204 20.7863 11.3911 20.6653 11.0282 C 20.5444 10.6653 20.4032 10.4032 20.2419 10.2419 L 21.8952 9.31452 L 21.8952 6.16935 L 18.4274 8.06452 C 18.0511 7.7957 17.6613 7.59409 17.2581 7.45968 C 16.8548 7.32527 16.3978 7.25806 15.8871 7.25806 C 15.2151 7.25806 14.5901 7.38575 14.0121 7.64113 C 13.4341 7.89651 12.9301 8.23925 12.5 8.66935 C 12.0699 9.09946 11.7339 9.60349 11.4919 10.1815 C 11.25 10.7594 11.129 11.371 11.129 12.0161 C 11.129 12.7688 11.297 13.461 11.6331 14.0927 C 11.9691 14.7245 12.4059 15.2554 12.9435 15.6855 C 12.621 16.3306 12.4597 17.0161 12.4597 17.7419 C 12.4597 18.0645 12.4933 18.3804 12.5605 18.6895 C 12.6277 18.9987 12.7285 19.3011 12.8629 19.5968 C 12.164 20 11.6062 20.5108 11.1895 21.129 C 10.7728 21.7473 10.5645 22.4059 10.5645 23.1048 C 10.5645 23.7231 10.7124 24.3011 11.0081 24.8387 C 11.3038 25.3763 11.7137 25.8468 12.2379 26.25 C 12.7621 26.6532 13.3737 26.9758 14.0726 27.2177 C 14.7715 27.4597 15.5242 27.5806 16.3306 27.5806 Z" stroke-linecap="round" />
</g>
<g transform="matrix(NaN NaN NaN NaN 0 0)"  >
<g style=""   >
</g>
</g>
<g transform="matrix(NaN NaN NaN NaN 0 0)"  >
<g style=""   >
</g>
</g>
<g transform="matrix(1 0 0 1 540 540)" id="Vector"  >
<path style="stroke: rgb(0,0,0); stroke-width: 0; stroke-dasharray: none; stroke-linecap: butt; stroke-dashoffset: 0; stroke-linejoin: miter; stroke-miterlimit: 4; fill: rgb(213,224,113); fill-rule: nonzero; opacity: 1;" vector-effect="non-scaling-stroke"  transform=" translate(-17.12, -16.88)" d="M 25.5726 0 C 26.7285 0 27.8172 0.221774 28.8387 0.665323 C 29.8602 1.10887 30.754 1.71371 31.5202 2.47984 C 32.2863 3.24597 32.8911 4.13978 33.3347 5.16129 C 33.7782 6.1828 34 7.27151 34 8.42742 L 34 25.2823 C 34 26.4382 33.7782 27.5336 33.3347 28.5685 C 32.8911 29.6035 32.2863 30.504 31.5202 31.2702 C 30.754 32.0363 29.8602 32.6411 28.8387 33.0847 C 27.8172 33.5282 26.7285 33.75 25.5726 33.75 L 8.67742 33.75 C 7.5215 33.75 6.43279 33.5282 5.41129 33.0847 C 4.38978 32.6411 3.49596 32.0363 2.72984 31.2702 C 1.96371 30.504 1.35887 29.6035 0.91532 28.5685 C 0.471771 27.5336 0.249997 26.4382 0.249997 25.2823 L 0.249997 8.42742 C 0.249997 7.27151 0.471771 6.1828 0.91532 5.16129 C 1.35887 4.13978 1.96371 3.24597 2.72984 2.47984 C 3.49596 1.71371 4.38978 1.10887 5.41129 0.665323 C 6.43279 0.221774 7.5215 0 8.67742 0 L 25.5726 0 Z M 11.8629 12.6613 L 7.62903 12.6613 L 7.62903 26.371 L 11.8629 26.371 L 11.8629 12.6613 Z M 9.76613 11.5726 C 10.3306 11.5726 10.8212 11.371 11.2379 10.9677 C 11.6546 10.5645 11.8629 10.0672 11.8629 9.47581 C 11.8629 8.88441 11.6546 8.3871 11.2379 7.98387 C 10.8212 7.58064 10.3306 7.37903 9.76613 7.37903 C 9.17473 7.37903 8.6707 7.58064 8.25403 7.98387 C 7.83736 8.3871 7.62903 8.88441 7.62903 9.47581 C 7.62903 10.0672 7.83736 10.5645 8.25403 10.9677 C 8.6707 11.371 9.17473 11.5726 9.76613 11.5726 Z M 26.621 18.4274 C 26.621 17.4597 26.3521 16.5121 25.8145 15.5847 C 25.2769 14.6573 24.578 13.9516 23.7177 13.4677 C 22.9382 13.0376 22.0309 12.8091 20.996 12.7823 C 19.961 12.7554 19.0269 12.9301 18.1935 13.3065 L 18.1935 12.6613 L 13.9597 12.6613 L 13.9597 26.371 L 18.1935 26.371 L 18.1935 17.9839 L 19.9274 17.1371 C 20.1425 17.0296 20.4382 16.9758 20.8145 16.9758 C 21.1909 16.9758 21.4731 17.043 21.6613 17.1774 C 21.8226 17.2581 21.9839 17.4328 22.1452 17.7016 C 22.3064 17.9704 22.3871 18.2124 22.3871 18.4274 L 22.3871 26.371 L 26.621 26.371 L 26.621 18.4274 Z" stroke-linecap="round" />
</g>
<g transform="matrix(NaN NaN NaN NaN 0 0)"  >
<g style=""   >
</g>
</g>
<g transform="matrix(NaN NaN NaN NaN 0 0)"  >
<g style=""   >
</g>
</g>
</svg>